<svg width="19" height="18" viewBox="0 0 19 18" fill="none" xmlns="http://www.w3.org/2000/svg">
<path d="M5.04713 8.95997C5.04713 7.74846 5.05422 6.53617 5.0416 5.32466C5.0416 5.06965 5.11099 4.99825 5.36885 4.99903C7.83711 5.00845 10.3054 5.00845 12.7736 4.99903C13.0307 4.99903 13.1025 5.06808 13.1017 5.32388C13.0922 7.77357 13.0922 10.2233 13.1017 12.673C13.1017 12.928 13.0323 13.0002 12.7744 12.9986C10.3062 12.9902 7.8379 12.9902 5.36964 12.9986C5.11256 12.9986 5.03845 12.9303 5.0416 12.6737C5.05422 11.4363 5.04713 10.1982 5.04713 8.95997Z" fill="#E7B84F"/>
<path d="M17.4251 0.00492184C16.0782 1.33884 14.7984 2.61076 13.5232 3.88347C13.4176 3.98862 13.3001 3.9996 13.166 3.9996C10.5542 3.9996 7.9427 3.9996 5.33145 3.9996C5.11223 3.9996 5.03968 3.94232 5.04205 3.71713C5.0523 2.57153 5.04915 1.42515 5.04205 0.279551C5.04205 0.0982959 5.05939 -0.00370985 5.28886 -0.00292519C9.3051 0.00649067 13.319 0.00492184 17.4251 0.00492184Z" fill="#E7B84F"/>
<path d="M18.135 0.750977V1.1433C18.135 4.95987 18.1302 8.77565 18.1428 12.5922C18.1428 12.9155 18.064 13.0049 17.7351 12.9987C16.6311 12.9767 15.5271 12.9822 14.4286 12.9987C14.1645 12.9987 14.1037 12.9202 14.1053 12.6691C14.1132 10.1033 14.1132 7.53746 14.1053 4.97164C14.0981 4.89497 14.1079 4.81767 14.1339 4.74515C14.1599 4.67264 14.2016 4.60666 14.2559 4.55185C15.495 3.33145 16.7305 2.10765 17.9623 0.880444C17.9985 0.848273 18.0395 0.82395 18.135 0.750977Z" fill="#D93F66"/>
<path d="M0.0086636 17.2771V16.8196C0.0086636 13.0282 0.0134059 9.23751 0 5.44214C0 5.07963 0.100134 4.98625 0.456572 4.9941C1.53298 5.01685 2.60941 5.01136 3.68582 4.9941C3.96577 4.99018 4.03753 5.07884 4.03674 5.34876C4.02727 7.90203 4.03121 10.4553 4.032 13.0086C4.032 13.1545 4.0249 13.2856 3.9074 13.4009C2.63384 14.6658 1.36502 15.9291 0.0086636 17.2771Z" fill="#66C1E8"/>
<path d="M0.806152 17.9939C0.843216 17.826 0.952028 17.7664 1.03089 17.6879C2.18931 16.5345 3.35326 15.3857 4.50774 14.2284C4.57599 14.1517 4.66029 14.0909 4.75471 14.0503C4.84914 14.0096 4.95138 13.99 5.05422 13.993C7.61501 14.0013 10.1753 14.0013 12.735 13.993C13.0284 13.993 13.1088 14.0612 13.1041 14.3563C13.0851 15.4634 13.0922 16.5713 13.1001 17.6793C13.1001 17.8927 13.082 18.001 12.8123 18.0002C8.82128 17.9908 4.83107 17.9939 0.806152 17.9939Z" fill="#3FBE74"/>
<path d="M14.1108 17.8444C14.1108 16.6722 14.1108 15.4379 14.1108 14.2044C14.1108 14.0177 14.2031 13.9973 14.3537 13.9981C15.5847 13.9981 16.8165 13.9981 17.9883 13.9981L14.1108 17.8444Z" fill="#D93F66"/>
<path d="M0.168945 3.99643L4.03299 0.162598V2.53304C4.03299 2.93636 4.02747 3.33967 4.03299 3.74298C4.03299 3.92188 3.97936 4.00035 3.78773 3.99956C2.57411 3.99407 1.35734 3.99643 0.168945 3.99643Z" fill="#66C1E8"/>
</svg>
